<svg width="70" height="70" viewBox="0 0 70 70" fill="none" xmlns="http://www.w3.org/2000/svg">
<path fill-rule="evenodd" clip-rule="evenodd" d="M36.4905 39.7901C40.2318 38.7877 42.4427 34.9583 41.4402 31.2169L37.8167 17.694C36.8143 13.9526 32.9849 11.7417 29.2435 12.7442C25.5022 13.7467 23.2913 17.5761 24.2938 21.3174L27.9173 34.8404C28.9197 38.5818 32.7491 40.7926 36.4905 39.7901ZM28.8014 20.1096C28.4693 18.87 29.2118 17.584 30.4514 17.2519C31.691 16.9197 32.9769 17.6622 33.3091 18.9018L36.9326 32.4248C37.2647 33.6644 36.5223 34.9503 35.2826 35.2825C34.043 35.6146 32.7571 34.8722 32.4249 33.6326L28.8014 20.1096ZM47.9988 29.4596C46.8945 29.7555 46.1878 30.8145 46.3034 31.9671C46.7985 37.5112 43.2652 42.8061 37.6983 44.2978C32.1313 45.7895 26.424 42.9706 24.0807 37.9217C23.6045 36.8656 22.463 36.3019 21.3586 36.5978C19.9838 36.9662 19.2281 38.4731 19.7932 39.7711C22.7094 46.2366 29.5377 50.0837 36.604 49.2291L37.8601 53.917C38.1923 55.1566 39.4782 55.8991 40.7178 55.5669C41.9574 55.2348 42.6999 53.9488 42.3678 52.7092L41.1116 48.0212C47.6585 45.2283 51.6485 38.4824 50.9411 31.425C50.8042 30.0123 49.3737 29.0912 47.9988 29.4596Z" fill="#F36326"/>
</svg>
