<svg width="70" height="70" viewBox="0 0 70 70" fill="none" xmlns="http://www.w3.org/2000/svg">
<path fill-rule="evenodd" clip-rule="evenodd" d="M28.0081 59.7333C14.3772 55.8426 6.48113 41.6385 10.3718 28.0076C14.2625 14.3767 28.4665 6.48068 42.0975 10.3714C55.7284 14.262 63.6244 28.4661 59.7337 42.097C55.8431 55.7279 41.639 63.624 28.0081 59.7333ZM29.2889 55.2458C40.4415 58.4291 52.063 51.9687 55.2463 40.8162C58.4296 29.6636 51.9692 18.0421 40.8166 14.8588C29.664 11.6755 18.0425 18.1359 14.8593 29.2885C11.676 40.4411 18.1364 52.0626 29.2889 55.2458ZM43.8623 45.9344L40.9286 42.3052C38.5775 44.2057 35.4517 44.8723 32.4911 44.0272C29.5305 43.1822 27.2274 40.966 26.2338 38.1108L21.8264 39.6447C23.3142 43.9197 26.7731 47.2482 31.2102 48.5147C35.6473 49.7811 40.342 48.78 43.8623 45.9344ZM40.1806 34.0895L41.4615 29.602L45.9489 30.8829L44.6681 35.3703L40.1806 34.0895ZM27.9992 25.7594L26.7183 30.2469L31.2057 31.5277L32.4866 27.0403L27.9992 25.7594Z" fill="#4FB05D"/>
</svg>
